<?xml version="1.0" encoding="utf-8"?>
<svg version="1.1" id="Layer_1" x="0px" y="0px" viewBox="0 0 750 750" style="enable-background:new 0 0 750 750;" xmlns="http://www.w3.org/2000/svg">
  <g style="" transform="matrix(1.067133, 0, 0, 1.149949, -27.792728, -66.70755)">
    <path d="M723.8,314.4c-3.4-19.5-12.6-34.7-27.4-45c-18.4-12.9-41.8-15.3-63.6-15c-34.8,0.5-77.5,0.6-108.4-17.7 c-22.7-13.4-42.6-32-63.3-48.1c-78.5-61-128.6-34.9-191.8,24c-31.7,29.5-74.3,43.6-117.2,43.8c-17.9,0.1-35.7-3.3-53.5-1.8 c-15.9,1.3-31.9,5.6-45.1,14.8c-14.8,10.3-24,25.5-27.4,45C19,355.3,28.7,394.5,52.7,422c24,27.5,61.2,42.5,108.3,43.9 c31.1,69.1,93.5,125.9,226.1,130.2c117,3.7,177.7-58.4,208.9-130.5c43.8-2.6,78.5-17.5,101.3-43.6 C721.3,394.5,731,355.3,723.8,314.4z M384.2,520.9c-95.5,0-168.2-53.7-169.3-54.5l6.6-8.7c1.6,1.2,158.8,117,311.6,0l6.6,8.6 C486.2,507.3,432.3,520.9,384.2,520.9z M404.3,441.7c-114.4,0-214.2-44.9-215.6-45.5l4.5-9.9c2.1,0.9,208.7,93.7,364.5,8.9 l5.2,9.6C512.4,432.3,456.8,441.7,404.3,441.7z M571,336.8c-7.8-0.4-15.5-0.8-23.3-1.2c-15.1-0.8-30.6-1.6-45.9-2 c-25.9-0.7-50.1-7.2-73.5-13.5c-7.6-2-15.2-4.1-22.9-6c-23.7-5.8-53.6-4.7-80,2.8c-56.3,16.1-107.1,14.8-126.3,14.3 c-3.1-0.1-6.4-0.2-7.2-0.1l-2.3-10.6c1.5-0.4,3.4-0.3,9.8-0.2c18.7,0.5,68.3,1.7,123-13.9c28.1-8,60.1-9.1,85.5-2.9 c7.8,1.9,15.5,4,23.2,6c23.8,6.4,46.4,12.5,71,13.1c15.4,0.4,31.1,1.2,46.2,2c7.8,0.4,15.5,0.8,23.2,1.2L571,336.8z M687.4,413.4 c-19.3,22.2-48.7,35.4-86,38.7c20.4-53.9,25.6-111.3,26.5-149.9c-52.6,0-118.2-4.5-151.6-43.3c-22-25.6-41.1-38.5-65.9-44.8 c-19.9-5-49.1-10.5-72,0.6c-13,6.2-24.6,16.1-35.9,25.6c-6.6,5.6-13.5,11.3-20.5,16.3c-37.7,26.7-90.6,54.7-146.4,54.7 c-2.6,0-5.3-0.1-7.9-0.3c4.1,43.5,9.6,94.7,27.7,141.6c-40.5-2.3-72.4-15.6-92.9-39.2c-21.4-24.6-30-59.8-23.5-96.8 c2.8-16,10.2-28.2,21.9-36.5c20.9-14.6,50.4-13.5,62.2-12.3c1.3,9.9,2.4,20.7,3.5,32.2c56.3,3.3,110.7-25.3,149.1-52.4 c6.7-4.7,13-10.1,19.8-15.8c11.8-9.9,24-20.2,38.2-27c26.1-12.6,57.8-6.8,79.4-1.3c33.7,8.5,55,29.2,71.5,48.3 c30.4,35.3,93,39.5,143.5,39.5c0-9.6-0.2-17.6-0.5-23.5c12.2-1.2,40.9-2.1,61.4,12.3c11.8,8.2,19.2,20.5,22,36.5 C717.4,353.6,708.8,388.9,687.4,413.4z" style="fill: rgb(0, 185, 252);"/>
  </g>
</svg>